<svg width="24" height="22" viewBox="0 0 24 22" fill="none" xmlns="http://www.w3.org/2000/svg">
<path d="M6.54925 0H12.1052V4.13723C12.1052 4.13723 12.5643 4.36017 12.5965 4.5803C12.6286 4.80043 12.7251 4.73834 13.2807 4.5803C13.8363 4.42226 13.6726 4.98951 13.8363 5.02055C14.0001 5.05159 14.5878 5.30276 14.7838 5.24068C14.9797 5.17859 15.3686 5.13626 15.4359 5.24068C15.5031 5.34509 15.3686 5.95467 16.088 5.66964C16.8073 5.3846 16.9652 5.79663 17.1319 5.89259C17.2986 5.98854 18.1758 5.63859 18.5355 5.89259C18.8952 6.14658 19.287 6.1748 19.4829 5.89259C19.6789 5.61037 20.755 5.27736 21.1146 5.59344C21.4743 5.90952 21.5386 6.03369 21.9305 6.08167C22.3223 6.12964 22.4861 6.31873 22.682 6.36388C22.8779 6.40903 23.1031 6.31308 23.1031 6.77309C23.1031 7.23309 23.0358 9.38637 23.1031 9.60932C23.1703 9.83226 23.5593 10.1117 23.5593 10.3967C23.5593 10.6817 23.5914 11.0571 23.7873 11.2151C23.9833 11.3731 24.0798 12.0335 23.9189 12.1916C23.7581 12.3496 23.723 12.7898 23.6557 13.0382C23.5885 13.2865 23.6557 13.6675 23.5593 13.8848C23.4628 14.1021 23.723 14.263 23.2317 14.3872C22.7405 14.5113 22.1878 14.8613 21.9597 14.6073C21.7316 14.3533 21.4392 14.3872 21.3398 14.5452C21.2404 14.7032 21.5035 14.9855 21.4714 15.1745C21.4392 15.3636 20.6555 15.8688 20.3017 16.0889C19.9479 16.309 19.3016 16.7069 19.0092 16.4868C18.7168 16.2667 18.2255 16.0776 18.2577 16.3909C18.2899 16.7041 18.746 17.0851 18.1583 17.1162C17.5705 17.1472 17.281 17.3984 17.2459 17.7455C17.2108 18.0926 16.9857 18.1886 16.8541 18.5018C16.7084 18.812 16.6099 19.1409 16.5617 19.4783C16.5082 19.8022 16.5657 20.1341 16.7254 20.4237C16.8892 20.6438 16.6611 21.2111 16.9213 21.5271C17.1816 21.8432 17.0529 22.0916 16.6933 21.9674C16.2794 21.8521 15.8556 21.7728 15.4271 21.7303C15.1639 21.6993 14.1872 20.943 13.8919 20.847C13.5965 20.751 13.5322 20.4999 13.272 19.6194C13.0117 18.7389 12.848 18.5808 12.5204 18.3268C12.1929 18.0729 11.6081 17.0992 11.38 16.659C11.1365 16.1102 10.8521 15.5792 10.5291 15.0701C10.2367 14.692 9.65181 14.0598 9.25412 14.1868C8.85643 14.3138 7.03467 14.0288 6.87091 14.7512C6.70716 15.4737 6.31824 15.7587 5.99365 15.5979C5.66907 15.437 4.00228 14.5593 3.83853 14.2122C3.67477 13.8651 3.51102 13.7465 3.44669 13.2103C3.2884 12.6244 2.90325 12.1193 2.37059 11.7993C2.04893 11.6666 1.42315 11.4804 1.26232 11.0063C1.19769 10.7989 1.07504 10.6128 0.907882 10.4684C0.740724 10.324 0.53553 10.227 0.314882 10.1879C-0.0447929 10.1596 0.00199418 9.68269 0.00199418 9.68269L6.53171 9.65165L6.54925 0Z" fill="white"/>
</svg>
